<svg viewBox="0 0 1400 1000" xmlns="http://www.w3.org/2000/svg" font-family="'Courier New', monospace">
  <defs>
    <pattern id="grid" width="25" height="25" patternUnits="userSpaceOnUse">
      <path d="M 25 0 L 0 0 0 25" fill="none" stroke="#16406B" stroke-width="0.6"/>
    </pattern>
    <pattern id="gridMajor" width="125" height="125" patternUnits="userSpaceOnUse">
      <rect width="125" height="125" fill="url(#grid)"/>
      <path d="M 125 0 L 0 0 0 125" fill="none" stroke="#1E5288" stroke-width="1"/>
    </pattern>
    <marker id="arrow" markerWidth="8" markerHeight="8" refX="7" refY="4" orient="auto">
      <path d="M0,0 L8,4 L0,8 z" fill="#6FC3FF"/>
    </marker>
    <marker id="dim" markerWidth="10" markerHeight="10" refX="5" refY="5" orient="auto">
      <path d="M1,1 L9,9 M5,0 L5,10" stroke="#DCEBFA" stroke-width="1" fill="none"/>
    </marker>
  </defs>

  <rect width="1400" height="1000" fill="#0B2A4A"/>
  <rect width="1400" height="1000" fill="url(#gridMajor)"/>
  <rect x="20" y="20" width="1360" height="960" fill="none" stroke="#DCEBFA" stroke-width="2"/>
  <rect x="28" y="28" width="1344" height="944" fill="none" stroke="#DCEBFA" stroke-width="0.8"/>

  <text x="50" y="70" fill="#DCEBFA" font-size="30" letter-spacing="4" font-weight="bold">LAGRANGE LOOM — LL-1 "ARANEA"</text>
  <text x="50" y="96" fill="#6FC3FF" font-size="14" letter-spacing="2">ORBITAL TETHER-WEAVING SPACECRAFT · SIDE ELEVATION ON LINE · NETWORK SCHEMATIC · SHEET 1 OF 5</text>
  <text x="1350" y="66" fill="#DCEBFA" font-size="12" text-anchor="end">DESIGNER: W.A. SANDUN PRIYANKARA WIJERATHNE</text>
  <text x="1350" y="84" fill="#6FC3FF" font-size="11" text-anchor="end">sandunwijerathne51@gmail.com · github.com/sandunwijerathne</text>
  <line x1="50" y1="110" x2="1350" y2="110" stroke="#6FC3FF" stroke-width="1"/>

  <!-- ======== NETWORK SCHEMATIC INSET (top right) ======== -->
  <g stroke="#DCEBFA" fill="none" stroke-width="1.2">
    <rect x="950" y="140" width="390" height="260" fill="#0E3357" stroke="#6FC3FF"/>
    <text x="966" y="164" fill="#6FC3FF" font-size="12" letter-spacing="2" stroke="none">FIG. B — CISLUNAR NETWORK TOPOLOGY</text>
    <!-- Earth -->
    <circle cx="1015" cy="290" r="30"/>
    <path d="M 990 275 q 12 8 24 2 q 14 -6 24 4 M 995 305 q 14 -6 26 0" stroke-width="0.8"/>
    <!-- LEO rotating tether -->
    <circle cx="1090" cy="290" r="26" stroke-dasharray="4 4" stroke-width="0.8"/>
    <line x1="1072" y1="272" x2="1108" y2="308" stroke-width="1.5"/>
    <path d="M 1104 268 A 26 26 0 0 1 1112 286" stroke="#6FC3FF" marker-end="url(#arrow)" stroke-width="1"/>
    <!-- climber line to L1 -->
    <line x1="1116" y1="290" x2="1210" y2="290" stroke-dasharray="6 4"/>
    <!-- L1 hub -->
    <rect x="1204" y="284" width="12" height="12" fill="#0E3357"/>
    <line x1="1210" y1="278" x2="1210" y2="262" stroke-width="0.8"/>
    <!-- moon-side rotating tether -->
    <circle cx="1252" cy="290" r="20" stroke-dasharray="4 4" stroke-width="0.8"/>
    <line x1="1238" y1="276" x2="1266" y2="304" stroke-width="1.5"/>
    <!-- Moon -->
    <circle cx="1305" cy="290" r="13"/>
    <circle cx="1301" cy="286" r="3" stroke-width="0.7"/>
    <g fill="#DCEBFA" font-size="10" stroke="none">
      <text x="1015" y="338" text-anchor="middle">EARTH</text>
      <text x="1090" y="338" text-anchor="middle">MX TETHER</text>
      <text x="1210" y="256" text-anchor="middle">L1 HUB</text>
      <text x="1305" y="320" text-anchor="middle">MOON</text>
      <text x="1160" y="282" text-anchor="middle" fill="#6FC3FF">CLIMBER LINE</text>
      <text x="966" y="382" fill="#6FC3FF">MOMENTUM FLOW: INBOUND MASS FUNDS OUTBOUND MASS</text>
    </g>
  </g>

  <!-- ======== MAIN ELEVATION ======== -->
  <g stroke="#DCEBFA" fill="none" stroke-width="2">
    <!-- incoming precursor filament (single) -->
    <line x1="60" y1="430" x2="300" y2="430" stroke-width="1.2"/>
    <text x="80" y="415" fill="#6FC3FF" font-size="11" stroke="none">PRECURSOR FILAMENT (IN)</text>

    <!-- outgoing Hoytether ribbon (lattice) -->
    <line x1="560" y1="418" x2="900" y2="418" stroke-width="1.4"/>
    <line x1="560" y1="442" x2="900" y2="442" stroke-width="1.4"/>
    <path d="M 560 418 L 585 442 L 610 418 L 635 442 L 660 418 L 685 442 L 710 418 L 735 442 L 760 418 L 785 442 L 810 418 L 835 442 L 860 418 L 885 442" stroke-width="0.9"/>
    <path d="M 560 442 L 585 418 L 610 442 L 635 418 L 660 442 L 685 418 L 710 442 L 735 418 L 760 442 L 785 418 L 810 442 L 835 418 L 860 442 L 885 418" stroke-width="0.9"/>
    <text x="640" y="470" fill="#6FC3FF" font-size="11" stroke="none">WOVEN HOYTETHER RIBBON (OUT)</text>

    <!-- main hull -->
    <rect x="300" y="340" width="260" height="180" rx="14"/>

    <!-- spool magazine -->
    <circle cx="337" cy="383" r="17"/><circle cx="337" cy="383" r="5"/>
    <circle cx="337" cy="430" r="17"/><circle cx="337" cy="430" r="5"/>
    <circle cx="337" cy="477" r="17"/><circle cx="337" cy="477" r="5"/>

    <!-- spinneret (cutaway) -->
    <circle cx="450" cy="430" r="55"/>
    <circle cx="450" cy="430" r="38" stroke-dasharray="5 4" stroke-width="1.2"/>
    <circle cx="450" cy="430" r="12"/>
    <path d="M 450 392 A 38 38 0 0 1 488 430" stroke="#6FC3FF" stroke-width="3"/>
    <g stroke-width="0.8">
      <line x1="450" y1="375" x2="450" y2="360"/><line x1="450" y1="485" x2="450" y2="500"/>
      <line x1="395" y1="430" x2="380" y2="430"/><line x1="505" y1="430" x2="520" y2="430"/>
    </g>

    <!-- crawler pinch rollers -->
    <circle cx="308" cy="412" r="10"/><circle cx="308" cy="448" r="10"/>
    <circle cx="552" cy="406" r="10"/><circle cx="552" cy="454" r="10"/>

    <!-- weaving arms -->
    <path d="M 560 388 L 630 352 L 700 392" stroke-width="2.5"/>
    <circle cx="630" cy="352" r="7"/>
    <path d="M 700 392 l 14 10 m -14 -10 l 2 18" stroke-width="1.5"/>
    <path d="M 560 472 L 634 506 L 702 468" stroke-width="2.5"/>
    <circle cx="634" cy="506" r="7"/>
    <path d="M 702 468 l 14 -10 m -14 10 l 2 -18" stroke-width="1.5"/>

    <!-- solar array -->
    <line x1="470" y1="340" x2="470" y2="300"/>
    <rect x="360" y="252" width="100" height="46"/>
    <path d="M 385 252 v46 M 410 252 v46 M 435 252 v46 M 360 275 h100" stroke-width="0.8"/>
    <rect x="480" y="252" width="100" height="46"/>
    <path d="M 505 252 v46 M 530 252 v46 M 555 252 v46 M 480 275 h100" stroke-width="0.8"/>

    <!-- sensor / interrogator mast -->
    <line x1="322" y1="340" x2="322" y2="292"/>
    <rect x="304" y="262" width="36" height="30" rx="5"/>
    <circle cx="322" cy="277" r="7"/>

    <!-- payload grapple boom -->
    <line x1="430" y1="520" x2="430" y2="574"/>
    <path d="M 418 574 q 12 20 24 0" stroke-width="2"/>
    <path d="M 414 574 h 32" stroke-width="1.2"/>
  </g>

  <!-- ======== DETAIL A: lattice close-up ======== -->
  <g stroke="#DCEBFA" fill="none" stroke-width="1.4">
    <circle cx="1120" cy="580" r="82" stroke="#6FC3FF"/>
    <line x1="1052" y1="548" x2="1188" y2="548" stroke-width="2"/>
    <line x1="1052" y1="612" x2="1188" y2="612" stroke-width="2"/>
    <path d="M 1052 548 L 1086 612 L 1120 548 L 1154 612 L 1188 548" />
    <path d="M 1052 612 L 1086 548 L 1120 612 L 1154 548" />
    <!-- severed strand -->
    <path d="M 1154 548 L 1171 580" stroke-dasharray="3 3" stroke-width="1"/>
    <path d="M 1160 566 l 8 -6 m -4 12 l 9 -5" stroke="#6FC3FF" stroke-width="1"/>
    <path d="M 1120 548 L 1154 612" stroke="#6FC3FF" stroke-width="2.2"/>
    <text x="1120" y="690" fill="#6FC3FF" font-size="12" text-anchor="middle" stroke="none">DETAIL A — FAILSAFE LATTICE: CUT STRAND SHEDS LOAD</text>
    <line x1="840" y1="442" x2="1048" y2="556" stroke="#6FC3FF" stroke-width="0.9" stroke-dasharray="5 4"/>
  </g>

  <!-- ======== CALLOUTS ======== -->
  <g stroke="#6FC3FF" stroke-width="1" fill="none">
    <line x1="450" y1="375" x2="500" y2="205" marker-start="url(#arrow)"/>
    <line x1="630" y1="345" x2="668" y2="230" marker-start="url(#arrow)"/>
    <line x1="308" y1="402" x2="200" y2="340" marker-start="url(#arrow)"/>
    <line x1="337" y1="460" x2="205" y2="560" marker-start="url(#arrow)"/>
    <line x1="410" y1="252" x2="330" y2="200" marker-start="url(#arrow)"/>
    <line x1="770" y1="418" x2="800" y2="330" marker-start="url(#arrow)"/>
    <line x1="430" y1="574" x2="530" y2="640" marker-start="url(#arrow)"/>
    <line x1="322" y1="262" x2="240" y2="225" marker-start="url(#arrow)"/>
  </g>
  <g fill="#DCEBFA" font-size="13">
    <g><circle cx="504" cy="193" r="12" fill="none" stroke="#6FC3FF"/><text x="504" y="198" text-anchor="middle">1</text></g>
    <g><circle cx="672" cy="218" r="12" fill="none" stroke="#6FC3FF"/><text x="672" y="223" text-anchor="middle">2</text></g>
    <g><circle cx="190" cy="333" r="12" fill="none" stroke="#6FC3FF"/><text x="190" y="338" text-anchor="middle">3</text></g>
    <g><circle cx="196" cy="570" r="12" fill="none" stroke="#6FC3FF"/><text x="196" y="575" text-anchor="middle">4</text></g>
    <g><circle cx="320" cy="193" r="12" fill="none" stroke="#6FC3FF"/><text x="320" y="198" text-anchor="middle">5</text></g>
    <g><circle cx="804" cy="318" r="12" fill="none" stroke="#6FC3FF"/><text x="804" y="323" text-anchor="middle">6</text></g>
    <g><circle cx="542" cy="650" r="12" fill="none" stroke="#6FC3FF"/><text x="542" y="655" text-anchor="middle">7</text></g>
    <g><circle cx="228" cy="218" r="12" fill="none" stroke="#6FC3FF"/><text x="228" y="223" text-anchor="middle">8</text></g>
  </g>

  <!-- dimension -->
  <g stroke="#DCEBFA" stroke-width="1" fill="#DCEBFA">
    <line x1="300" y1="620" x2="716" y2="620" marker-start="url(#dim)" marker-end="url(#dim)"/>
    <line x1="300" y1="530" x2="300" y2="630" stroke-dasharray="4 3"/>
    <line x1="716" y1="480" x2="716" y2="630" stroke-dasharray="4 3"/>
    <text x="508" y="642" text-anchor="middle" font-size="14">WORK ENVELOPE 22.6 m (ARMS EXTENDED)</text>
  </g>

  <!-- ======== PARTS LIST ======== -->
  <g font-size="13" fill="#DCEBFA">
    <rect x="50" y="740" width="620" height="216" fill="#0E3357" stroke="#6FC3FF" stroke-width="1"/>
    <text x="66" y="765" fill="#6FC3FF" font-size="14" letter-spacing="2" font-weight="bold">PARTS &amp; SYSTEMS INDEX</text>
    <line x1="66" y1="774" x2="654" y2="774" stroke="#6FC3FF" stroke-width="0.7"/>
    <text x="66" y="796">1 — SPINNERET CORE: vacuum braider, extrudes 400 m ribbon per hour</text>
    <text x="66" y="818">2 — TWIN WEAVING ARMS: 7-DOF, splice / knot / tension operations</text>
    <text x="66" y="840">3 — CRAWLER PINCH-ROLLER DRIVE: translates along line, non-abrasive</text>
    <text x="66" y="862">4 — SPOOL MAGAZINE: 3 x 900 kg precursor filament drums (UHMWPE/CNT)</text>
    <text x="66" y="884">5 — SOLAR ARRAY: 22 kW, powers braiding + electrodynamic reboost</text>
    <text x="66" y="906">6 — HOYTETHER RIBBON: multi-line failsafe lattice, see DETAIL A</text>
    <text x="66" y="928">7 — PAYLOAD GRAPPLE BOOM: tip-catch mechanism, 500 kg class</text>
    <text x="66" y="950">8 — FIBRE-OPTIC INTERROGATOR: reads strain map woven into web</text>
  </g>

  <text x="1350" y="730" fill="#6FC3FF" font-size="11" text-anchor="end" letter-spacing="1">DESIGNED BY: W.A. SANDUN PRIYANKARA WIJERATHNE · sandunwijerathne51@gmail.com · github.com/sandunwijerathne</text>

  <!-- ======== TITLE BLOCK ======== -->
  <g font-size="12" fill="#DCEBFA">
    <rect x="700" y="740" width="650" height="216" fill="#0E3357" stroke="#DCEBFA" stroke-width="1.5"/>
    <line x1="700" y1="790" x2="1350" y2="790" stroke="#DCEBFA"/>
    <line x1="700" y1="840" x2="1350" y2="840" stroke="#DCEBFA"/>
    <line x1="700" y1="890" x2="1350" y2="890" stroke="#DCEBFA"/>
    <line x1="1030" y1="740" x2="1030" y2="956" stroke="#DCEBFA"/>
    <text x="716" y="762" fill="#6FC3FF" letter-spacing="1">PROJECT</text>
    <text x="716" y="781" font-size="15" font-weight="bold">OFF-WORLD CIVILISATION TOOLKIT</text>
    <text x="1046" y="762" fill="#6FC3FF">DRAWING NO.</text>
    <text x="1046" y="781" font-size="15" font-weight="bold">LL-1-GA-001 · REV A</text>
    <text x="716" y="812" fill="#6FC3FF">UNIT DESIGNATION</text>
    <text x="716" y="831" font-weight="bold">LL-1 "ARANEA" — GENERAL ARRANGEMENT</text>
    <text x="1046" y="812" fill="#6FC3FF">SCALE</text>
    <text x="1046" y="831" font-weight="bold">1 : 60 @ A1</text>
    <text x="716" y="862" fill="#6FC3FF">DEPLOYMENT ENVIRONMENT</text>
    <text x="716" y="881" font-weight="bold">LEO TO EARTH-MOON L1/L2, 10-YEAR SERVICE LIFE</text>
    <text x="1046" y="862" fill="#6FC3FF">MASS (DRY)</text>
    <text x="1046" y="881" font-weight="bold">12,000 kg</text>
    <text x="716" y="912" fill="#6FC3FF">FUNCTION</text>
    <text x="716" y="931" font-weight="bold">WEAVES / SPLICES / REPAIRS MOMENTUM-EXCHANGE TETHER WEB</text>
    <text x="1046" y="912" fill="#6FC3FF">STATUS</text>
    <text x="1046" y="931" font-weight="bold">CONCEPT — DOES NOT EXIST (YET)</text>
  </g>
</svg>
